# xmcd CD database file
#
# Track frame offsets:
#	150
#	17630
#	35669
#	50167
#	65609
#	83361
#	101483
#	119494
#	138812
#	155654
#	172811
#
# Disc length: 2523 seconds
#
# Revision: 0
# Processed by: cddbd v1.5.2PL0 Copyright (c) Steve Scherf et al.
# Submitted via: CDex 1.51
#
DISCID=8a09d90b
DTITLE=C:Real - Κάθε μου σκέψη
DYEAR=2006
DGENRE=Blues
TTITLE0=Επικίνδυνα σε θέλω
TTITLE1=Σήμερα βράδυ
TTITLE2=Μόνη της
TTITLE3=Κάθε μου σκέψη
TTITLE4=Σόναρ
TTITLE5=Κυκλώνας
TTITLE6=Θα ΄μαι πάντα εδώ
TTITLE7=Το μυστήριο
TTITLE8=Μείνε δίπλα μου
TTITLE9=Μόνο εσύ
TTITLE10=A Slice of Heaven
EXTD=YEAR: 2006
EXTT0=
EXTT1=
EXTT2=
EXTT3=
EXTT4=
EXTT5=
EXTT6=
EXTT7=
EXTT8=
EXTT9=
EXTT10=
PLAYORDER=
